<?xml version="1.0" encoding="UTF-8"?><svg id="Layer_1" xmlns="http://www.w3.org/2000/svg" width="500.36" height="500" viewBox="0 0 500.36 500"><defs><style>.cls-1{fill:#f2f2f2;}</style></defs><rect class="cls-1" width="500.36" height="500"/><path d="M76.19,235.45h-32.62v-71.97h34.96c8.82.13,15.07,2.69,18.75,7.67,2.21,3.06,3.32,6.72,3.32,10.99s-1.11,7.93-3.32,10.6c-1.24,1.5-3.06,2.86-5.47,4.1,3.68,1.33,6.45,3.45,8.33,6.35,1.87,2.9,2.81,6.41,2.81,10.55s-1.07,8.09-3.22,11.47c-1.37,2.25-3.08,4.13-5.13,5.66-2.31,1.76-5.04,2.96-8.18,3.61-3.14.65-6.55.98-10.23.98ZM83.32,190.04c1.95-1.17,2.93-3.27,2.93-6.3,0-3.35-1.3-5.57-3.91-6.64-2.25-.75-5.11-1.12-8.59-1.12h-15.82v15.87h17.68c3.16,0,5.73-.6,7.71-1.81ZM75.85,203.76h-17.92v19.19h17.68c3.16,0,5.62-.42,7.37-1.27,3.19-1.56,4.79-4.56,4.79-8.98,0-3.74-1.55-6.31-4.64-7.71-1.73-.78-4.15-1.19-7.28-1.22Z"/><path d="M165.64,204.01h-34.96v18.51h35.01s0,12.94,0,12.94h-49.71s0-71.97,0-71.97h49.71s0,12.74,0,12.74h-35.01v15.28h34.96v12.5Z"/><path d="M224.54,235.45l-.16-16.75c-.07-4.59-.9-7.65-2.51-9.18-1.61-1.53-4.63-2.29-9.06-2.29h-15.53v28.22h-14.7v-71.97h35.3c5.05.1,8.93.72,11.65,1.86,2.72,1.14,5.02,2.82,6.91,5.03,1.56,1.82,2.8,3.84,3.71,6.05.91,2.21,1.37,4.74,1.37,7.57,0,3.42-.86,6.78-2.59,10.08-1.73,3.3-4.57,5.64-8.54,7.01,3.32,1.33,5.67,3.23,7.06,5.69,1.38,2.46,2.08,6.21,2.08,11.25l-.06,17.43M239.45,235.45h-14.91M221.94,194.14c2.99-1.37,4.49-4.07,4.49-8.11,0-4.36-1.45-7.29-4.35-8.79-1.63-.85-4.07-1.27-7.32-1.27h-17.48v19.34h17.04c3.39,0,5.92-.39,7.62-1.17Z"/><path d="M298.6,233.69c-3.97,2.44-8.85,3.66-14.65,3.66-9.54,0-17.35-3.3-23.44-9.91-6.35-6.64-9.52-15.72-9.52-27.25s3.21-21,9.62-28.03,14.89-10.55,25.44-10.55c9.15,0,16.5,2.32,22.05,6.96s8.73,10.42,9.55,17.36h-14.79c-1.14-4.92-3.92-8.35-8.35-10.3-2.47-1.07-5.22-1.61-8.25-1.61-5.79,0-10.55,2.19-14.28,6.57-3.73,4.38-5.59,10.96-5.59,19.75s2.02,15.12,6.05,18.8c4.04,3.68,8.63,5.52,13.77,5.52s9.18-1.46,12.4-4.37c3.22-2.91,5.21-6.73,5.96-11.45h-16.65v-12.01h29.98v38.62h-9.96l-1.51-8.98c-2.9,3.42-5.5,5.83-7.81,7.23Z"/><path d="M382.34,204.01h-34.96v18.51h34.96s0,12.94,0,12.94h-49.66s0-71.97,0-71.97h49.66s0,12.74,0,12.74h-34.96v15.28h34.96v12.5Z"/><path d="M457.15,235.45h-15.04l-29.39-51.12v51.12h-14.01v-71.97h15.77l28.66,50.24v-50.24h14.01v71.97Z"/><path d="M152.87,340.78c0-1.82.55-3.27,1.64-4.38,1.09-1.1,2.37-1.65,3.84-1.65.97,0,1.83.31,2.6.93.77.62,1.15,1.49,1.15,2.59,0,1.25-.42,2.38-1.26,3.39-.84,1.01-2.03,1.66-3.57,1.95.97,1.32,2.43,1.99,4.4,1.99,2.73,0,4.81-3.15,6.24-9.45.8-3.17,1.73-7.75,2.79-13.74l8.31-40.95h-6.82c-1.83,0-2.74-.41-2.74-1.24,0-1.04.22-1.67.67-1.88.45-.21,1.21-.32,2.28-.32h7.3l2.44-12.06c2.43-12.04,7.15-18.07,14.16-18.07,2.43,0,4.55.65,6.34,1.94,1.79,1.3,2.69,3.08,2.69,5.34,0,1.81-.56,3.27-1.67,4.38-1.11,1.1-2.4,1.66-3.87,1.66-.97,0-1.83-.31-2.58-.93-.75-.62-1.13-1.49-1.13-2.59,0-1.25.42-2.38,1.26-3.39.84-1.01,2.03-1.66,3.57-1.95-1.11-1.36-2.65-2.04-4.62-2.04-1.23,0-2.27.63-3.12,1.88-.86,1.26-1.44,2.41-1.73,3.47-.3,1.06-.66,2.59-1.08,4.6-.9,3.97-2.07,9.89-3.5,17.75h8.44c.71,0,1.23.02,1.57.05.34.04.62.17.85.4.23.23.35.56.35.99,0,.9-.23,1.45-.67,1.67-.45.21-1.23.32-2.34.32h-9.05l-8.05,39.35c-.44,2.14-.87,4.23-1.29,6.29-.42,2.05-1.29,4.91-2.61,8.58-1.32,3.67-3.07,6.64-5.23,8.92-2.16,2.27-4.55,3.41-7.16,3.41-2.26,0-4.29-.64-6.1-1.93-1.81-1.29-2.71-3.05-2.71-5.31Z"/><path d="M201.31,308.57c0-7.99,2.92-15.28,8.75-21.86,5.84-6.58,12.19-9.87,19.07-9.87,4.78,0,8.66,1.68,11.64,5.05,2.98,3.37,4.47,7.71,4.47,13.01,0,7.98-2.92,15.27-8.74,21.87-5.83,6.6-12.21,9.9-19.13,9.9-4.69,0-8.54-1.63-11.55-4.88s-4.51-7.67-4.51-13.24ZM209.05,312.98c0,3.73.81,6.54,2.42,8.44,1.61,1.9,3.58,2.85,5.91,2.85,2.65,0,5.25-1.04,7.81-3.12,2.56-2.08,4.68-4.7,6.36-7.85,1.61-3.08,3.01-6.97,4.19-11.67s1.77-8.37,1.77-11.02c0-3.3-.75-6.01-2.26-8.15-1.5-2.13-3.58-3.2-6.23-3.2-2.26,0-4.59.86-7.01,2.58s-4.63,4.19-6.63,7.42c-1.68,2.87-3.16,6.8-4.43,11.8-1.27,5-1.91,8.97-1.91,11.91Z"/><path d="M254.54,293.76c0-.14.14-.78.43-1.91s.72-2.61,1.31-4.46c.59-1.84,1.19-3.43,1.79-4.75,2-3.87,4.58-5.8,7.76-5.8h.11c2.44,0,4.5.79,6.19,2.37,1.69,1.58,2.71,3.69,3.07,6.34.72-1.11,1.61-2.22,2.69-3.33s2.84-2.28,5.3-3.52c2.46-1.24,5.05-1.85,7.77-1.85,3.22,0,5.93.88,8.14,2.63,2.2,1.76,3.3,4.7,3.3,8.82,0,4.48-2.24,12.66-6.71,24.52-1.33,3.98-1.99,6.74-1.99,8.28,0,2.12.81,3.17,2.42,3.17,4.12,0,7.54-4.6,10.26-13.8.21-.9.41-1.43.59-1.59.18-.16.59-.24,1.24-.24,1.11,0,1.67.36,1.67,1.07,0,.21-.14.88-.43,1.99-.29,1.11-.8,2.52-1.53,4.24-.73,1.72-1.62,3.37-2.66,4.94-1.04,1.58-2.38,2.94-4.03,4.08-1.65,1.15-3.42,1.72-5.32,1.72-2.58,0-4.62-.85-6.12-2.54-1.5-1.69-2.26-3.77-2.26-6.22,0-1.61.59-3.96,1.77-7.04,4.26-12.19,6.39-20.31,6.39-24.36,0-4.84-1.68-7.26-5.05-7.26-5.56,0-10.42,3.65-14.61,10.96-1.23,2.05-2.3,5.02-3.22,8.91-.2.8-.5,1.99-.89,3.57-.39,1.58-.7,2.79-.9,3.62l-4.39,17.56c-.75,1.84-2.15,2.77-4.18,2.81-1.09,0-1.9-.29-2.43-.87-.53-.58-.79-1.24-.79-1.98,0-.37.12-.89.37-1.56l8.29-33.03c.5-2.04.75-3.91.75-5.59,0-2.94-.95-4.41-2.86-4.41-1.62,0-3.01,1.1-4.17,3.3-1.15,2.2-2.27,5.47-3.35,9.8-.29,1.18-.54,1.9-.75,2.15-.21.25-.65.38-1.32.38-1.09-.04-1.64-.41-1.64-1.13Z"/><path d="M317.28,280.12c0-.97.24-1.56.71-1.77s1.26-.32,2.35-.32h9.21l4.35-17.46c.72-2.65,2.17-3.97,4.34-3.97,1.99,0,2.99.95,2.99,2.84,0,.5-.18,1.27-.54,2.3l-4.08,16.29h8.84c.72,0,1.23.02,1.54.05.31.04.58.15.84.35.25.2.38.51.38.94,0,.97-.24,1.56-.73,1.77s-1.26.32-2.33.32h-9.4l-8.17,32.64c-.39,2.06-.59,3.95-.59,5.68,0,2.99.96,4.49,2.89,4.49h.05c2.78,0,5.25-1.39,7.41-4.18,2.16-2.79,3.88-5.9,5.17-9.35.41-1.04.7-1.65.89-1.83s.58-.27,1.19-.27c1.05,0,1.57.36,1.57,1.07,0,.21-.21.88-.63,1.99-.42,1.11-1.11,2.52-2.06,4.24-.95,1.72-2.04,3.37-3.25,4.94-1.22,1.58-2.77,2.94-4.65,4.08-1.89,1.15-3.83,1.72-5.84,1.72-2.82,0-5.1-.95-6.84-2.86s-2.6-4.25-2.6-7.03c0-1.05.18-2.3.54-3.75l7.88-31.58h-8.66c-.71,0-1.21-.02-1.51-.05-.3-.04-.58-.15-.85-.35-.26-.2-.4-.51-.4-.94Z"/></svg>