<?xml version="1.0" encoding="utf-8"?>
<!-- Generator: Adobe Illustrator 28.3.0, SVG Export Plug-In . SVG Version: 6.00 Build 0)  -->
<svg version="1.1" id="Layer_1" xmlns="http://www.w3.org/2000/svg" xmlns:xlink="http://www.w3.org/1999/xlink" x="0px" y="0px"
	 viewBox="0 0 800 800" style="enable-background:new 0 0 800 800;" xml:space="preserve">
<path d="M566.7,66.7c91.9,0.3,166.4,74.7,166.7,166.7v333.3c-0.3,91.9-74.7,166.4-166.7,166.7H233.3
	c-91.9-0.3-166.4-74.7-166.7-166.7V233.3c0.3-91.9,74.7-166.4,166.7-166.7H566.7 M566.7,0H233.3C105,0,0,105,0,233.3v333.3
	C0,695,105,800,233.3,800h333.3C695,800,800,695,800,566.7V233.3C800,105,695,0,566.7,0z"/>
<path d="M589.6,254.2c-24.2,0-43.8-19.6-43.8-43.8s19.6-43.8,43.8-43.8c24.2,0,43.8,19.6,43.8,43.8c0.1,24.1-19.5,43.7-43.6,43.8
	C589.7,254.2,589.6,254.2,589.6,254.2z"/>
<path d="M400,283.3c64.4,0,116.7,52.2,116.7,116.7S464.4,516.7,400,516.7S283.3,464.4,283.3,400C283.4,335.6,335.6,283.4,400,283.3
	 M400,225c-96.6,0-175,78.4-175,175s78.4,175,175,175s175-78.4,175-175S496.6,225,400,225z"/>
</svg>
