<?xml version="1.0" encoding="UTF-8"?>
<svg id="Layer_1" data-name="Layer 1" xmlns="http://www.w3.org/2000/svg" viewBox="0 0 764.34 760.7">
  <defs>
    <style>
      .cls-1 {
        fill: #000;
        stroke-width: 0px;
      }
    </style>
  </defs>
  <path class="cls-1" d="M358.64,181.89c-71.26-.49-131.55,55.84-146.73,123.52-7.95,35.44-6.12,73.25,4.89,107.86s32.04,68.08,64.86,87.2c30.12,17.55,65.73,23.59,99.75,28.5,36.71,5.3,79.04,11.62,111.49-11.37,33.63-23.83,50.64-64.55,55.8-104.29,4.74-36.5-4.66-72.8-20.25-105.62-14.96-31.5-37.09-59.53-60.59-85.07-11.6-12.6-23.55-25.69-36.76-36.62-11.31-9.35-23.26-15.39-38.24-15.89-10.92-.36-21.59,3.06-31.8,6.49-8.78,2.95-17.56,5.9-26.34,8.86-14.73,4.95-25.93,20.73-20.79,36.62,4.74,14.65,20.81,26.1,36.62,20.79,14.37-4.83,29.08-11.3,44.05-13.89l-7.91,1.06c2.98-.39,5.82-.49,8.8-.2l-7.91-1.06c2.27.38,4.34.95,6.47,1.81l-7.11-3c1.45.69,2.78,1.55,4.2,2.29,4.96,2.61-5.07-4.54-.89-.74,2.52,2.29,5.01,4.61,7.46,6.98,5.14,4.96,10.22,9.98,15.22,15.09,10.21,10.42,20.08,21.19,29.4,32.42,2.2,2.66,4.56,5.3,6.56,8.13-1.28-1.8-3.88-5.09-1.06-1.35,1.02,1.35,2.03,2.7,3.03,4.06,3.83,5.23,7.52,10.57,11.01,16.03,7.26,11.36,13.66,23.24,18.96,35.64l-3-7.11c6,14.34,10.36,29.23,12.47,44.65-.35-2.64-.71-5.28-1.06-7.91,1.57,12.51,1.58,25.03-.06,37.54.35-2.64.71-5.28,1.06-7.91-1.77,12.23-5.03,24.09-9.77,35.5l3-7.11c-2.2,5.12-4.64,10.12-7.41,14.95-1.26,2.19-2.57,4.35-3.96,6.47-.75,1.15-1.53,2.29-2.33,3.41-1.29,1.82-4.21,4.31,1.18-1.41-3.41,3.62-6.52,7.28-10.25,10.62-4.25,3.81,4.34-2.85,1.49-1.16-1.17.69-2.27,1.54-3.43,2.24-2.34,1.4-4.78,2.6-7.27,3.71l7.11-3c-6.05,2.49-12.29,4.08-18.76,5.05l7.91-1.06c-16.97,2.21-34.03.18-50.89-2.05,2.64.35,5.28.71,7.91,1.06-28.73-3.87-58.51-8.19-85.48-19.29l7.11,3c-6.55-2.78-12.9-5.97-18.88-9.83-1.74-1.13-3.92-2.27-5.4-3.73l3.41,2.65c-.85-.68-1.69-1.37-2.52-2.08-2.65-2.27-5.17-4.68-7.56-7.22-1.28-1.36-2.53-2.76-3.74-4.19-1.45-1.71-4.19-6.25.66.99-1.94-2.9-4.04-5.68-5.88-8.66-3.84-6.21-7.1-12.74-9.96-19.45l3,7.11c-6.2-14.93-10.31-30.6-12.51-46.61l1.06,7.91c-1.96-15.22-2.1-30.53-.19-45.76l-1.06,7.91c1.83-13.43,5.23-26.48,10.42-39.01l-3,7.11c3.36-7.83,7.32-15.38,12.1-22.44,1.06-1.56,2.12-3.59,3.49-4.9l-2.82,3.64c.62-.79,1.25-1.57,1.89-2.35,2.55-3.1,5.25-6.08,8.08-8.93s5.79-5.57,8.87-8.14c1.72-1.43,6.11-4.1-1.32.91,1.66-1.11,3.22-2.38,4.87-3.52,6.58-4.52,13.58-8.35,20.9-11.54l-7.11,3c9.17-3.86,18.67-6.56,28.52-7.96l-7.91,1.06c4.94-.63,9.89-.93,14.87-.89,15.57.11,30.48-13.77,29.77-29.77s-13.08-29.65-29.77-29.77h0Z"/>
  <path class="cls-1" d="M532.46,146.1c-9.55,6.85-16.4,14.84-19.81,26.37s-1.22,23.74,4.34,33.78c11.37,20.52,37.97,33.82,59.76,20.62,16.33-9.89,26.67-29.25,26.24-48.34-.35-15.81-8.86-30.86-24.71-35.51-3.93-1.15-8.36-1.85-12.48-1.66-2.65.12-5.16.61-7.83.31l7.91,1.06-1.2-.31c-15.06-3.87-33,4.93-36.62,20.79s4.65,32.47,20.79,36.62c7.31,1.88,12.41.73,19.38,1.07l-7.91-1.06c.75.07,1.46.26,2.13.59l-7.11-3-8.39-8.03-3-7.11.33,1.29-1.06-7.91c.3,2.51.25,4.92-.05,7.43l1.06-7.91c-.45,2.55-1.15,4.92-2.14,7.31l3-7.11c-.42.93-.88,1.84-1.4,2.71-1.66,2.55-.99,1.79,2.01-2.29-.64.76-1.33,1.48-2.06,2.16,4.21-2.96,5.03-3.68,2.44-2.15l7.11-3c-.86.42-1.76.72-2.71.88l7.91-1.06c-1.02.17-2.03.14-3.04-.07l7.91,1.06-1.55-.46,7.11,3c-.41-.19-2.84-1.1-2.88-1.57.04.4,5.65,4.96,1.83.98-.77-.8-3.17-3.74-.07.12s.59.28.05-.83l3,7.11c-.53-1.41-.88-2.68-1.12-4.16l1.06,7.91c-.09-1.41-.05-2.63.13-4.02l-1.06,7.91c.3-1.37.68-2.55,1.21-3.85l-3,7.11c1.46-2.6.63-1.73-2.48,2.63,2.09-2.12,1.09-1.46-3,2,6.46-4.63,11.5-9.88,13.68-17.79,1.96-7.13,1.08-16.61-3-22.94-8.07-12.51-27.2-20.39-40.73-10.68h0Z"/>
  <path class="cls-1" d="M621.88,689.02c-12.95,4.49-26.31,7.32-39.87,9.22,2.64-.35,5.28-.71,7.91-1.06-56.6,7.56-114.67,3.39-171.56,2.09-56.96-1.31-113.91-2.61-170.87-3.92-31.55-.72-63.46-.24-94.79-4.39l7.91,1.06c-14.84-2.08-29.43-5.32-43.31-11.05l7.11,3c-6.55-2.8-12.88-6.07-18.76-10.1-2-1.37-5.16-4.89,1.17,1.08-1.09-1.02-2.33-1.9-3.45-2.9-2.64-2.35-4.96-4.92-7.35-7.5-3.82-4.14,4.1,5.96.95,1.25-.7-1.04-1.41-2.07-2.09-3.13-1.1-1.74-2.14-3.52-3.13-5.33-2.41-4.39-4.52-8.93-6.49-13.52l3,7.11c-13.93-33.03-21.38-69.09-26.15-104.49l1.06,7.91c-6.91-52.37-1.74-105.16,1.83-157.62,3.53-51.84,6.93-103.64,5.8-155.63-.37-16.8-1.12-33.59-2.21-50.36-1.29-19.86-3.78-39.41-6.47-59.12l1.06,7.91c-1.77-13.31-3.08-26.69-1.47-40.08l-1.06,7.91c.88-6.29,2.41-12.33,4.77-18.24l-3,7.11c1.88-4.37,4.07-8.57,6.76-12.5.72-1.05,3.33-4.49.02-.19s-.53.78.16-.01c1.42-1.61,2.92-3.15,4.49-4.61,2.26-2.1,8.18-5.42-.13-.23,1.63-1.02,3.14-2.22,4.77-3.24,3.9-2.43,8-4.48,12.21-6.31l-7.11,3c11.9-4.98,24.46-7.91,37.12-10.18l-7.91,1.06c61.44-6.88,123.09-2.03,184.48,2.7,29.97,2.31,59.98,4.5,90.05,5s60.92-1.79,91.43-4.23c35.44-2.84,71.14-4.88,106.52-.25l-7.91-1.06c19.26,2.66,38.02,7.43,55.96,14.97l-7.11-3c8.25,3.54,16.28,7.59,23.93,12.29,3.79,2.33,7.49,4.8,11.08,7.43.67.49,1.59,1.51,2.36,1.77-1.29-.43-5.86-4.63-1.98-1.46,1.71,1.39,3.38,2.83,5.02,4.3,3.09,2.77,6.05,5.67,8.88,8.71,1.49,1.6,2.95,3.24,4.35,4.92.78.93,1.53,1.89,2.31,2.83,2.25,2.73-4-5.46-1.99-2.54,5.37,7.82,10.13,15.67,13.88,24.41l-3-7.11c5.94,14.42,9.25,29.62,11.37,45.03l-1.06-7.91c4.66,35.53,4.42,71.58-.26,107.09.35-2.64.71-5.28,1.06-7.91-5.98,43.9-17.33,87.11-18.2,131.61-.84,42.63,6.1,84.88,8.3,127.37,1.05,20.35.92,40.7-1.74,60.93l1.06-7.91c-2.6,18.93-7.23,37.53-14.65,55.17,1-2.37,2-4.74,3-7.11-3.03,7.03-6.45,13.87-10.44,20.41-1.97,3.23-4.06,6.39-6.28,9.45-.52.72-1.29,1.48-1.69,2.27.23-.46,4.57-5.72,2.04-2.69-1.36,1.63-2.71,3.25-4.13,4.83-2.52,2.81-5.17,5.5-7.94,8.06-1.39,1.29-2.81,2.54-4.27,3.75-.73.61-1.48,1.19-2.21,1.8-2.69,2.25,5.52-4.03,2.62-2.04-7.82,5.37-15.76,10.08-24.49,13.86l7.11-3c-2.78,1.16-5.59,2.25-8.42,3.27-7.4,2.66-13.71,6.71-17.79,13.68-3.73,6.38-5.32,15.78-3,22.94,4.65,14.38,20.93,26.44,36.62,20.79,27.2-9.79,51.72-25.18,69.74-48.05,16.37-20.76,27.93-44.27,35.08-69.76,15.2-54.2,8.89-109.7,3.97-164.82-3.07-34.38-4.36-68.48.22-102.78l-1.06,7.91c5.53-40.21,15.22-79.72,17.84-120.34,1.27-19.66,1.11-39.42-.47-59.06-1.6-19.84-3.93-40.08-9.7-59.19-10.85-35.93-33.47-64.57-63.8-86.14-25.87-18.4-57.39-30.13-88.62-35.25-40.32-6.62-80.57-5.27-121.13-2.03-19.18,1.53-38.34,3.39-57.58,4.05s-37,.4-55.48-.33C291.74,7.64,217.01-3.38,141.85,1.03c-19.21,1.13-38.47,2.89-57.1,7.95-14.75,4-29.79,9.86-42.07,19.09-16.22,12.19-27.6,27.09-34.96,46.05C.81,91.9.52,111.94,2.58,130.69c1.2,10.94,2.9,21.83,4.39,32.73l-1.06-7.91c5,37.51,5.79,76.02,5.64,113.82-.13,32.39-1.85,64.73-3.99,97.04-2.32,35.05-4.87,70.08-6.5,105.17-.75,16.11-1.53,32.17-.68,48.28.91,17.11,3.03,34.15,5.58,51.08,4.49,29.86,11.06,59.9,21.84,88.17,4.88,12.79,10.15,26.2,18.24,37.38,12.12,16.75,27.94,29.95,46.93,38.31,39.71,17.47,83,18.46,125.72,19.44,43.05.99,86.1,1.98,129.15,2.96,42.72.98,85.44,1.99,128.16,2.94,44.31.99,89.15,1.7,132.94-6.23,9.77-1.77,19.39-4.21,28.78-7.46,14.68-5.09,25.96-20.63,20.79-36.62-4.7-14.53-20.86-26.25-36.62-20.79Z"/>
</svg>