<?xml version="1.0" encoding="utf-8"?>
<!-- Generator: Adobe Illustrator 28.3.0, SVG Export Plug-In . SVG Version: 6.00 Build 0)  -->
<svg version="1.1" id="Icons" xmlns="http://www.w3.org/2000/svg" xmlns:xlink="http://www.w3.org/1999/xlink" x="0px" y="0px"
	 viewBox="0 0 800 800" style="enable-background:new 0 0 800 800;" xml:space="preserve">
<style type="text/css">
	.st0{fill:none;stroke:#000000;stroke-width:66.5;stroke-linecap:round;stroke-linejoin:round;stroke-miterlimit:250;}
	.st1{fill:none;stroke:#000000;stroke-width:50;stroke-linecap:round;stroke-linejoin:round;stroke-miterlimit:250;}
</style>
<g id="SVGRepo_bgCarrier">
</g>
<g id="SVGRepo_tracerCarrier">
</g>
<g id="SVGRepo_iconCarrier">
	<path class="st0" d="M571.1,766.3H229c-107.5,0-195.5-88-195.5-195.5V228.8c0-107.5,88-195.5,195.5-195.5h342.1
		c107.5,0,195.5,88,195.5,195.5v342.1C766.5,678.4,678.6,766.3,571.1,766.3z"/>
	<rect x="175" y="325" class="st1" width="100" height="300"/>
	<path class="st1" d="M512.5,325c-22.5,0-45,7.5-62.5,20v-20H350v300h50h50V462.5c0-20,17.5-37.5,37.5-37.5s37.5,17.5,37.5,37.5V625
		h100V437.5C625,375,575,325,512.5,325z"/>
	<circle class="st1" cx="225" cy="200" r="50"/>
</g>
</svg>
